<?xml version="1.0" encoding="UTF-8"?>
<svg version="1.1" xmlns="http://www.w3.org/2000/svg" width="797" height="775">
<path d="M0 0 C263.01 0 526.02 0 797 0 C797 255.75 797 511.5 797 775 C533.99 775 270.98 775 0 775 C0 519.25 0 263.5 0 0 Z " fill="#FEFEFE" transform="translate(0,0)"/>
<path d="M0 0 C1.9186235 0.0041391 1.9186235 0.0041391 3.87600708 0.00836182 C22.89547375 0.08411942 40.94882199 0.69385724 59.4375 5.5 C60.11115601 5.67204956 60.78481201 5.84409912 61.47888184 6.0213623 C104.92871105 17.13895118 145.48311436 34.81351496 185.75 54.3125 C186.49980133 54.67489777 187.24960266 55.03729553 188.02212524 55.41067505 C212.64812186 67.32800646 212.64812186 67.32800646 221.4375 74.8125 C222.82286305 75.96751223 224.20827981 77.12246003 225.59375 78.27734375 C226.25375 78.83276855 226.91375 79.38819336 227.59375 79.96044922 C230.00720549 81.97571012 232.47479459 83.92041303 234.9375 85.875 C247.6895147 96.30846657 259.71414403 107.99616229 270.4375 120.5 C271.35633877 121.55506394 272.27564629 122.60971974 273.1953125 123.6640625 C311.4375 167.6596644 311.4375 167.6596644 311.4375 177.5 C304.52955557 177.83627487 297.62117087 178.11953121 290.70947266 178.36669922 C287.68178014 178.49004798 284.66119306 178.66344829 281.63671875 178.84765625 C269.17929858 179.45881341 269.17929858 179.45881341 264.9609375 177.13671875 C263.06811798 175.04943148 261.8086261 172.96040962 260.4375 170.5 C259.06393661 168.60862502 257.66603404 166.73479119 256.25 164.875 C255.49332031 163.8540625 254.73664062 162.833125 253.95703125 161.78125 C249.41610349 155.7775584 244.40374609 150.15171829 239.4375 144.5 C238.64085937 143.58992187 237.84421875 142.67984375 237.0234375 141.7421875 C229.27616443 133.0093956 221.22100755 124.93934544 212.08984375 117.65234375 C209.62621707 115.65314154 207.27827061 113.57799077 204.9375 111.4375 C200.04401904 107.05232076 194.79812257 103.28974416 189.4375 99.5 C188.13068381 98.5493123 186.82474887 97.59741247 185.51953125 96.64453125 C176.82337945 90.33896309 168.00910884 84.6683415 158.52832031 79.61962891 C156.35889522 78.45790734 154.20683946 77.26759884 152.0546875 76.07421875 C139.58062906 69.23851481 126.6832094 63.66430314 113.4375 58.5 C112.57511719 58.16339355 111.71273438 57.82678711 110.82421875 57.47998047 C97.88164233 52.50931775 84.68051742 49.10480589 71.15625 46.10498047 C68.93250906 45.61015018 66.71588822 45.09481951 64.5 44.56640625 C23.00605214 35.29750355 -24.12530918 37.09743776 -65.5625 45.5 C-66.36929199 45.66306641 -67.17608398 45.82613281 -68.00732422 45.99414062 C-124.00916775 57.76425804 -175.29807416 86.17740777 -216.953125 125.07421875 C-219.20123023 127.16414891 -221.48400911 129.18842739 -223.8125 131.1875 C-231.58940841 137.97024692 -238.12871023 145.44758274 -244.5625 153.5 C-245.48818331 154.62485152 -246.41532556 155.74850363 -247.34375 156.87109375 C-259.56583903 171.74476154 -270.23856162 187.66334937 -279.5625 204.5 C-280.26391113 205.75925293 -280.26391113 205.75925293 -280.97949219 207.04394531 C-293.32502912 229.39937706 -302.97466932 252.81842303 -309.5625 277.5 C-309.82901367 278.48693848 -310.09552734 279.47387695 -310.37011719 280.49072266 C-317.42424423 307.15430176 -319.92289657 333.45844933 -319.9375 360.9375 C-319.93949402 361.92865814 -319.94148804 362.91981628 -319.94354248 363.94100952 C-319.92725153 435.29316339 -295.02158616 504.83274086 -250.5625 560.5 C-249.82644531 561.42941406 -249.09039062 562.35882812 -248.33203125 563.31640625 C-233.77100819 581.43392698 -217.26626848 599.42809519 -198.42626953 613.13232422 C-196.32294467 614.67579106 -194.25388661 616.2601784 -192.18359375 617.84765625 C-138.47873765 658.69044849 -75.56475573 674.98986046 -9.40625 681.55004883 C-8.2925 681.6611499 -7.17875 681.77225098 -6.03125 681.88671875 C-5.04576172 681.98170654 -4.06027344 682.07669434 -3.04492188 682.17456055 C-0.5625 682.5 -0.5625 682.5 2.4375 683.5 C2.4375 696.04 2.4375 708.58 2.4375 721.5 C-18.67303823 721.5 -18.67303823 721.5 -25.125 721.125 C-25.899646 721.08173584 -26.67429199 721.03847168 -27.47241211 720.99389648 C-37.99380851 720.35348225 -48.53508411 719.31770684 -58.83984375 717.046875 C-61.66302344 716.47980878 -64.49535794 716.06396999 -67.34399414 715.64770508 C-98.87294333 710.88383942 -129.06619022 699.47466922 -157.5625 685.5 C-158.53251953 685.03255371 -159.50253906 684.56510742 -160.50195312 684.08349609 C-181.89193234 673.72112578 -202.16162861 660.55525841 -220.5625 645.5 C-221.45839844 644.78199219 -222.35429687 644.06398438 -223.27734375 643.32421875 C-226.0615919 641.07524929 -228.81696458 638.79606168 -231.5625 636.5 C-232.08924316 636.05962402 -232.61598633 635.61924805 -233.15869141 635.16552734 C-246.75694315 623.75759803 -259.81811784 612.09665881 -271.06787109 598.32275391 C-272.60817873 596.44429314 -274.17141297 594.58681011 -275.73828125 592.73046875 C-283.50226993 583.45286377 -290.45436667 573.74401787 -297.13134766 563.66015625 C-298.3725126 561.78676365 -299.62702857 559.9234438 -300.88671875 558.0625 C-340.57611906 498.19826589 -358.90526997 430.32923841 -358.9375 359 C-358.93949402 357.83117279 -358.94148804 356.66234558 -358.94354248 355.45809937 C-358.94075029 341.02260252 -358.36041724 326.82625643 -356.5625 312.5 C-356.41271446 311.28182838 -356.41271446 311.28182838 -356.25990295 310.03904724 C-348.00326931 243.628848 -318.83050463 181.47734021 -276.11376953 130.35986328 C-274.64705015 128.6013697 -273.19584401 126.83107813 -271.74609375 125.05859375 C-260.8166792 111.84967019 -248.68602451 99.05627941 -235.13671875 88.515625 C-232.72275796 86.62548271 -230.40691892 84.6489097 -228.09619141 82.63476562 C-209.47654408 66.48140992 -188.40090685 52.86782658 -166.5625 41.5 C-165.60682129 41.00242188 -164.65114258 40.50484375 -163.66650391 39.9921875 C-128.57197613 21.94770021 -90.56761683 9.57878535 -51.5625 3.5 C-50.40604477 3.31307587 -50.40604477 3.31307587 -49.22622681 3.12237549 C-32.80209656 0.51783793 -16.61160409 -0.06507842 0 0 Z " fill="#74875A" transform="translate(448.5625,25.5)"/>
<path d="M0 0 C102.63 0 205.26 0 311 0 C311 102.63 311 205.26 311 311 C298.46 311 285.92 311 273 311 C273 220.58 273 130.16 273 37 C182.91 37 92.82 37 0 37 C0 24.79 0 12.58 0 0 Z " fill="#74875A" transform="translate(450,399)"/>
<path d="M0 0 C69.96 0 139.92 0 212 0 C212 70.29 212 140.58 212 213 C199.46 213 186.92 213 174 213 C174 155.25 174 97.5 174 38 C116.58 38 59.16 38 0 38 C0 25.46 0 12.92 0 0 Z " fill="#A6B091" transform="translate(450,498)"/>
<path d="M0 0 C38.28 0 76.56 0 116 0 C116 38.61 116 77.22 116 117 C103.46 117 90.92 117 78 117 C78 90.93 78 64.86 78 38 C52.26 38 26.52 38 0 38 C0 25.46 0 12.92 0 0 Z " fill="#CACEBB" transform="translate(450,594)"/>
</svg>
